<svg xmlns="http://www.w3.org/2000/svg" width="59" height="60" viewBox="0 0 59 60" fill="none">
<path d="M19.6667 32.9451V42.7785H14.75V47.6951H22.125V52.6118H27.0417V47.6951H31.9583V52.6118H36.875V47.5698C41.713 46.9576 45.4792 42.8621 45.4792 37.8618C45.4792 34.6168 43.8812 31.7553 41.4475 29.9632C43.2424 28.1343 44.2486 25.6744 44.25 23.1118C44.25 18.5442 41.1058 14.7264 36.875 13.6276V8.36182H31.9583V13.2785H27.0417V8.36182H22.125V13.2785H14.75V18.1951H19.6667V32.9451ZM35.6458 42.7785H24.5833V32.9451H35.6458C38.3574 32.9451 40.5625 35.1503 40.5625 37.8618C40.5625 40.5734 38.3574 42.7785 35.6458 42.7785ZM24.5833 18.1951H34.4167C37.1282 18.1951 39.3333 20.4003 39.3333 23.1118C39.3333 25.8234 37.1282 28.0285 34.4167 28.0285H24.5833V18.1951Z" fill="#B4B4B4"/>
</svg>