<svg xmlns="http://www.w3.org/2000/svg" width="282" height="75" viewBox="0 0 282 75" fill="none">
<path d="M74.1143 37.0572C74.1143 57.5233 57.5233 74.1143 37.0572 74.1143C16.5911 74.1143 0 57.5233 0 37.0572C0 16.5911 16.5911 0 37.0572 0C57.5233 0 74.1143 16.5911 74.1143 37.0572ZM17.5314 37.0572C17.5314 47.841 26.2734 56.5829 37.0572 56.5829C47.841 56.5829 56.5829 47.841 56.5829 37.0572C56.5829 26.2734 47.841 17.5314 37.0572 17.5314C26.2734 17.5314 17.5314 26.2734 17.5314 37.0572Z" fill="url(#paint0_linear_2_206)"/>
<path fill-rule="evenodd" clip-rule="evenodd" d="M37.0572 74.1655C57.5234 74.1655 74.1145 57.5744 74.1145 37.1083C74.1145 16.6421 57.5234 0.0510254 37.0572 0.0510254C16.5911 0.0510254 0 16.6421 0 37.1083C0 57.5744 16.5911 74.1655 37.0572 74.1655ZM35.0241 61.5396C39.2444 63.7475 42.5984 65.5021 42.5984 61.4949C42.5984 53.2263 23.6801 38.767 16.0176 36.4293C9.15663 34.3362 3.20342 32.6538 3.20342 41.6676C3.20342 50.6813 15.9651 69.4724 20.0004 61.4949C23.1263 55.3152 29.7514 58.7812 35.0241 61.5396ZM51.1219 62.1562C46.5468 62.1562 47.9833 58.8105 50.0728 53.944C52.0999 49.2228 54.7415 43.0703 53.1048 37.1529C51.4164 31.0488 52.0669 27.0589 58.8625 21.1351C69.2967 15.7167 71.5169 27.2812 69.8857 39.1443C68.7299 47.5493 58.7834 62.1562 51.1219 62.1562ZM47.3355 6.65596C42.613 7.27217 37.285 7.96739 39.3084 3.29796C39.8712 1.99923 31.4727 1.91266 19.5244 7.67036C13.6108 10.52 0.985147 21.9091 9.09475 25.8438C17.2044 29.7784 39.3084 24.424 51.733 10.4843C56.173 5.50281 52.0568 6.0399 47.3355 6.65596Z" fill="url(#paint1_linear_2_206)"/>
<path d="M108.13 31.3771L99.2064 42.0851H108.13V45.6545H93.5974V42.0851L102.521 31.3771H93.5974V27.8077H108.13V31.3771Z" fill="#B860FC"/>
<path d="M108.904 27.8077H113.748L117.954 36.4762L122.161 27.8077H127.005L120.249 40.9378V45.6545H115.66V40.9378L108.904 27.8077Z" fill="#B860FC"/>
<path d="M144.34 45.6545H139.496L133.377 34.9464V45.6545H128.788V27.8077H133.632L139.751 38.5158V27.8077H144.34V45.6545Z" fill="#B860FC"/>
<path d="M158.12 27.8077C160.04 27.8077 161.493 28.3091 162.479 29.312C163.482 30.2978 163.983 31.751 163.983 33.6717V39.7905C163.983 41.7112 163.482 43.1729 162.479 44.1757C161.493 45.1616 160.04 45.6545 158.12 45.6545H148.176V27.8077H158.12ZM159.394 33.6717C159.394 32.1419 158.629 31.3771 157.1 31.3771H152.766V42.0851H157.1C158.629 42.0851 159.394 41.3203 159.394 39.7905V33.6717Z" fill="#B860FC"/>
<path d="M169.706 45.6545H164.734L171.491 27.8077H176.59L183.346 45.6545H178.374L177.227 42.4676H170.853L169.706 45.6545ZM172.001 39.1532H176.08L174.04 33.1618L172.001 39.1532Z" fill="#B860FC"/>
<path d="M191.113 40.3005L195.447 27.8077H200.419L193.663 45.6545H188.564L181.807 27.8077H186.779L191.113 40.3005Z" fill="#B860FC"/>
<path d="M203.852 45.6545H198.88L205.636 27.8077H210.736L217.492 45.6545H212.52L211.373 42.4676H204.999L203.852 45.6545ZM206.146 39.1532H210.226L208.186 33.1618L206.146 39.1532Z" fill="#B860FC"/>
<path d="M239.412 27.8077H244.001V40.8104C244.001 42.595 243.593 43.8953 242.777 44.7111C241.978 45.51 240.687 45.9094 238.902 45.9094H233.038C231.253 45.9094 229.953 45.51 229.137 44.7111C228.338 43.8953 227.939 42.595 227.939 40.8104V27.8077H232.528V40.8104C232.528 41.8302 233.038 42.3401 234.058 42.3401H237.882C238.902 42.3401 239.412 41.8302 239.412 40.8104V27.8077Z" fill="#B860FC"/>
<path d="M250.514 45.6545H245.543L252.299 27.8077H257.398L264.154 45.6545H259.183L258.035 42.4676H251.662L250.514 45.6545ZM252.809 39.1532H256.888L254.848 33.1618L252.809 39.1532Z" fill="#B860FC"/>
<path d="M266.193 27.8077H276.391C278.057 27.8077 279.281 28.1902 280.062 28.955C280.844 29.7029 281.235 30.8502 281.235 32.3969C281.235 33.4167 281.014 34.2496 280.572 34.8954C280.13 35.5243 279.586 35.9662 278.941 36.2212C280.317 36.5951 281.252 37.513 281.745 38.9747C281.915 39.5016 282 40.1135 282 40.8104C282 42.4761 281.609 43.6998 280.827 44.4817C280.045 45.2635 278.822 45.6545 277.156 45.6545H266.193V27.8077ZM277.411 40.0455C277.411 39.0257 276.901 38.5158 275.881 38.5158H270.782V42.0851H275.881C276.901 42.0851 277.411 41.5752 277.411 40.5554V40.0455ZM276.646 32.9068C276.646 31.887 276.136 31.3771 275.116 31.3771H270.782V34.9464H275.116C276.136 34.9464 276.646 34.4365 276.646 33.4167V32.9068Z" fill="#B860FC"/>
<defs>
<linearGradient id="paint0_linear_2_206" x1="18.4256" y1="63.7756" x2="60.2107" y2="16.1443" gradientUnits="userSpaceOnUse">
<stop stop-color="#BD3CFF"/>
<stop offset="1" stop-color="#01002B"/>
</linearGradient>
<linearGradient id="paint1_linear_2_206" x1="57.9488" y1="6.16337" x2="5.63269" y2="81.2292" gradientUnits="userSpaceOnUse">
<stop stop-color="#001767"/>
<stop offset="0.220051" stop-color="#D015EE"/>
<stop offset="0.673339" stop-color="#00183C"/>
<stop offset="1" stop-color="#D4C9FF"/>
</linearGradient>
</defs>
</svg>